<mxfile host="app.diagrams.net" modified="2024-04-10T03:47:28.676Z" agent="Mozilla/5.0 (Windows NT 10.0; Win64; x64) AppleWebKit/537.36 (KHTML, like Gecko) Chrome/123.0.0.0 Safari/537.36 Edg/123.0.0.0" version="24.0.7" etag="dlwWA0u6FTvMyx-usxrS" type="github">
  <diagram name="PÃ¡gina-1" id="0H9bTQsKVAGwVWxtF-Ph">
    <mxGraphModel>
      <root>
        <mxCell id="0" />
        <mxCell id="1" parent="0" />
      </root>
    </mxGraphModel>
  </diagram>
</mxfile>
